<?xml version="1.0" standalone="no"?>
<!DOCTYPE svg PUBLIC "-//W3C//DTD SVG 20010904//EN"
 "http://www.w3.org/TR/2001/REC-SVG-20010904/DTD/svg10.dtd">
<svg version="1.0" xmlns="http://www.w3.org/2000/svg"
 width="300.000000pt" height="167.000000pt" viewBox="0 0 300.000000 167.000000"
 preserveAspectRatio="xMidYMid meet">
<metadata>
Created by potrace 1.10, written by Peter Selinger 2001-2011
</metadata>
<g transform="translate(0.000000,167.000000) scale(0.100000,-0.100000)"
fill="#000000" stroke="none">
<path d="M2093 1204 c-17 -9 -43 -32 -57 -52 -53 -77 -72 -278 -38 -402 21
-75 19 -101 -9 -126 -15 -13 -22 -15 -31 -6 -7 7 -22 12 -35 12 -25 0 -38 19
-48 73 -9 48 -40 87 -69 87 -27 0 -62 -35 -77 -78 -6 -18 -17 -32 -25 -32 -12
0 -12 6 1 37 18 43 13 78 -17 111 -41 43 -74 22 -102 -64 -22 -68 -93 -164
-102 -140 -8 20 8 114 32 196 22 77 30 251 14 301 -23 68 -78 89 -117 47 -50
-54 -81 -154 -86 -276 -3 -60 -5 -64 -50 -108 -26 -24 -56 -62 -67 -84 -11
-22 -30 -44 -41 -51 -28 -15 -119 -21 -119 -8 0 5 6 9 13 8 32 -4 51 3 77 30
24 24 28 34 24 67 -9 75 -63 114 -138 100 -47 -9 -156 -90 -156 -116 l0 -20
-37 20 c-50 27 -102 26 -144 -3 -33 -23 -34 -25 -33 -90 1 -64 -1 -67 -20 -61
-65 19 -119 100 -128 190 -4 37 14 84 64 164 14 23 87 60 118 60 26 0 26 -3
-11 -40 -27 -27 -31 -36 -25 -68 20 -125 138 -131 199 -11 34 67 28 91 -35
156 -48 49 -121 78 -168 68 -54 -12 -134 -56 -178 -98 -67 -64 -96 -128 -96
-207 1 -108 10 -134 66 -195 71 -78 124 -107 208 -113 63 -4 72 -2 125 28 32
18 65 46 74 62 34 62 34 62 66 19 17 -22 42 -47 57 -55 37 -22 123 -20 177 4
24 11 47 20 51 20 4 0 26 -18 48 -40 46 -47 66 -49 116 -15 20 14 39 25 42 25
2 0 18 -16 35 -35 35 -40 92 -56 115 -33 13 12 11 20 -16 59 -16 24 -30 46
-30 49 0 3 20 6 45 7 25 1 45 -2 45 -8 0 -13 61 -49 83 -49 9 0 37 18 61 40
l43 40 22 -24 c13 -14 36 -30 53 -37 24 -10 28 -16 24 -35 -5 -18 0 -27 19
-40 32 -21 70 -12 101 24 12 15 34 41 47 57 l25 30 25 -23 c40 -37 95 -40 154
-7 l48 27 39 -26 c30 -20 51 -26 92 -26 91 0 179 52 172 102 -3 25 -26 28
-120 14 -31 -4 -48 -3 -48 4 0 5 12 10 27 10 16 0 39 11 55 27 39 37 39 91 -1
135 -27 30 -35 33 -85 32 -42 0 -63 -6 -83 -22 -16 -12 -37 -26 -48 -31 -36
-16 -48 -39 -46 -91 1 -40 -3 -51 -21 -64 -37 -26 -64 -20 -82 18 -20 42 -20
63 -1 99 15 29 35 96 41 132 1 11 9 47 16 80 14 57 15 73 10 152 -2 34 -58
103 -83 103 -8 0 -28 -8 -46 -16z m79 -46 c22 -28 25 -42 22 -95 -2 -33 -8
-81 -14 -105 -6 -23 -15 -63 -21 -88 -5 -25 -13 -54 -18 -65 -40 -88 -41 -116
-10 -177 26 -50 48 -61 85 -42 16 9 37 23 47 31 31 29 32 3 1 -28 -21 -20 -44
-32 -71 -36 -44 -6 -52 0 -98 65 l-23 33 -23 -46 c-37 -74 -86 -125 -120 -125
-16 0 -29 5 -29 10 0 6 6 10 13 10 22 0 84 64 116 121 l31 55 -18 50 c-27 72
-32 106 -22 149 6 25 5 44 -1 51 -13 16 4 120 30 177 21 45 62 87 86 87 7 0
24 -15 37 -32z m-671 -51 c18 -66 5 -235 -27 -342 -14 -49 -28 -103 -30 -119
-4 -36 25 -93 72 -139 21 -20 35 -39 32 -42 -14 -14 -67 27 -102 79 l-38 54
-42 -44 c-56 -58 -72 -58 -114 3 -44 63 -18 152 63 213 l42 32 5 101 c6 105
36 206 74 248 24 26 51 8 65 -44z m-761 -59 c25 -9 83 -67 101 -99 22 -43 -48
-139 -102 -139 -22 0 -59 46 -59 74 0 25 18 51 40 59 16 5 70 -22 70 -35 0
-14 -22 -20 -30 -8 -13 21 -45 7 -48 -23 -6 -49 61 -50 93 -1 17 26 17 29 -6
75 -18 35 -34 53 -62 65 -35 16 -40 16 -93 -2 -63 -21 -121 -71 -130 -112 -4
-15 -15 -37 -26 -49 -16 -17 -19 -31 -15 -75 2 -29 9 -69 14 -88 12 -43 54
-110 69 -110 6 0 23 -9 38 -21 18 -15 42 -21 81 -21 48 -1 59 2 86 28 17 16
37 41 45 56 13 25 12 29 -8 48 -43 40 -108 20 -108 -34 0 -23 37 -20 43 4 6
24 27 27 27 3 0 -23 -29 -53 -51 -53 -42 0 -51 69 -14 105 31 32 86 32 143 -1
18 -10 -7 -124 -27 -124 -4 0 -16 -8 -27 -19 -35 -32 -61 -41 -116 -41 -72 1
-121 26 -191 97 -53 54 -59 65 -62 109 -2 27 -5 56 -7 64 -6 30 14 111 28 117
8 3 14 10 14 17 0 21 91 105 127 117 19 6 47 17 61 25 25 13 50 11 102 -8z
m934 -249 c13 -26 13 -35 2 -58 -29 -57 -30 -161 -1 -161 16 0 79 93 96 143
10 28 18 37 36 37 16 0 23 -6 23 -18 0 -10 9 -49 21 -85 17 -56 24 -67 43 -67
12 0 27 5 34 12 6 6 15 8 19 4 15 -15 -39 -48 -66 -41 -37 9 -51 24 -76 78
l-22 47 -13 -30 c-21 -50 -69 -110 -88 -110 -26 0 -62 37 -69 71 -5 26 -23 42
-23 20 0 -14 -60 -54 -68 -46 -4 4 4 17 18 29 36 32 68 80 75 112 13 57 27 94
35 94 5 0 15 -14 24 -31z m-556 -4 c8 -7 15 -29 17 -49 5 -49 -24 -69 -97 -65
-29 2 -52 0 -50 -4 1 -4 2 -16 2 -27 0 -28 39 -60 74 -60 34 0 113 25 133 42
10 8 13 6 13 -4 0 -20 -29 -45 -63 -53 -15 -4 -30 -11 -33 -16 -3 -5 -29 -9
-58 -9 -45 0 -58 5 -89 31 -21 17 -37 40 -37 50 0 10 -5 21 -11 25 -6 3 -9 17
-6 30 2 14 0 27 -4 30 -15 9 -10 37 5 31 8 -3 30 9 50 28 20 18 46 36 58 38
32 6 81 -3 96 -18z m1358 15 c21 0 52 -56 47 -84 -6 -32 -49 -49 -108 -44 -43
3 -45 2 -45 -24 0 -35 36 -68 73 -68 40 0 108 20 130 38 9 9 20 12 24 9 11
-11 -38 -56 -68 -62 -16 -4 -31 -11 -34 -16 -4 -5 -30 -9 -58 -9 -40 1 -58 6
-79 25 -40 35 -71 94 -64 122 4 13 2 23 -4 23 -5 0 -10 7 -10 16 0 9 7 14 18
13 9 -2 32 11 50 28 31 30 70 44 100 36 8 -1 20 -3 28 -3z"/>
<path d="M2101 1093 c-32 -67 -47 -148 -29 -159 5 -3 6 -41 2 -88 -4 -53 -3
-90 4 -102 12 -22 15 -17 31 51 24 99 33 131 40 145 17 31 24 160 11 190 -7
17 -16 30 -20 30 -5 0 -22 -30 -39 -67z m25 -80 c-3 -21 -5 -39 -6 -40 0 -2
-4 -3 -9 -3 -10 0 -8 34 4 63 12 28 17 19 11 -20z"/>
<path d="M1446 1118 c-3 -13 -6 -33 -6 -44 0 -12 -7 -34 -15 -50 -10 -20 -13
-51 -10 -111 2 -46 7 -87 10 -93 3 -5 1 -10 -5 -10 -7 0 -9 -8 -5 -21 4 -12 8
-34 9 -50 3 -48 12 -42 30 19 26 93 35 306 16 358 -12 30 -16 30 -24 2z"/>
<path d="M1307 688 c-30 -34 -37 -50 -37 -83 0 -37 13 -65 31 -65 3 0 21 12
38 28 35 30 65 101 50 116 -5 6 -9 18 -9 28 0 31 -35 20 -73 -24z m25 -70
c-28 -28 -40 -16 -17 18 12 19 20 23 28 15 8 -8 5 -17 -11 -33z"/>
<path d="M1015 753 c-14 -15 -25 -31 -25 -35 0 -18 88 -8 111 12 24 20 24 20
5 35 -30 23 -62 18 -91 -12z"/>
<path d="M2415 772 c-6 -4 -18 -19 -28 -34 l-17 -28 44 0 c56 0 98 29 77 54
-14 16 -58 21 -76 8z"/>
</g>
</svg>
