<?xml version="1.0" standalone="no"?>
<!DOCTYPE svg PUBLIC "-//W3C//DTD SVG 20010904//EN"
 "http://www.w3.org/TR/2001/REC-SVG-20010904/DTD/svg10.dtd">
<svg version="1.0" xmlns="http://www.w3.org/2000/svg"
 width="353.000000pt" height="197.000000pt" viewBox="0 0 353.000000 197.000000"
 preserveAspectRatio="xMidYMid meet">

<g transform="translate(0.000000,197.000000) scale(0.100000,-0.100000)"
fill="#000000" stroke="none">
<path d="M0 985 l0 -985 1765 0 1765 0 0 985 0 985 -1765 0 -1765 0 0 -985z
m2583 282 c-2 -74 -9 -117 -29 -175 -8 -23 -14 -55 -14 -70 -1 -15 -9 -45 -20
-67 -11 -22 -19 -48 -20 -57 0 -9 -4 -20 -10 -23 -16 -10 -11 -77 9 -121 20
-44 54 -74 84 -74 20 0 68 28 80 47 11 17 27 16 27 -1 0 -26 -80 -76 -122 -76
-40 0 -50 8 -102 75 l-29 38 -15 -29 c-28 -55 -82 -133 -107 -152 -16 -13 -34
-18 -51 -14 l-27 5 29 21 c53 37 93 85 124 145 l30 60 -25 76 c-25 77 -35 202
-15 190 14 -8 13 18 -1 32 -8 8 -9 33 -4 78 9 89 62 195 107 217 l33 16 35
-39 c33 -37 35 -44 33 -102z m-822 49 c15 -50 18 -223 4 -246 -4 -6 -5 -13 -2
-16 5 -5 -11 -79 -47 -217 l-26 -98 25 -48 c13 -27 43 -67 66 -90 46 -47 46
-60 1 -37 -33 17 -85 73 -107 116 -9 17 -17 30 -19 30 -3 0 -14 -16 -26 -34
-29 -49 -83 -81 -109 -66 -39 20 -71 81 -71 134 0 49 38 136 60 136 5 0 23 13
40 30 17 16 34 30 39 30 5 0 11 53 13 118 5 93 11 132 33 192 47 131 97 157
126 66z m-886 -83 c33 -18 97 -80 114 -112 17 -30 -18 -110 -59 -138 -49 -34
-86 -30 -110 10 -37 59 -16 117 42 117 30 0 73 -34 63 -50 -8 -13 -35 -13 -35
0 0 16 -36 12 -50 -5 -10 -12 -10 -21 -2 -40 16 -35 65 -34 97 1 28 31 31 58
10 94 -8 14 -19 35 -24 47 -16 34 -103 72 -125 54 -6 -5 -30 -14 -54 -21 -59
-15 -117 -70 -136 -128 -9 -26 -25 -55 -36 -65 -13 -10 -20 -29 -20 -50 0 -52
39 -186 60 -210 11 -11 22 -29 26 -39 3 -10 11 -18 18 -18 7 0 25 -10 40 -21
31 -24 137 -34 171 -16 34 18 75 61 75 79 0 10 5 18 10 18 6 0 10 9 10 19 0
22 -56 61 -88 61 -26 0 -62 -37 -62 -62 0 -29 31 -35 48 -10 17 26 32 28 32 5
0 -25 -39 -62 -59 -56 -20 5 -41 43 -41 74 0 32 53 79 89 79 24 0 87 -21 111
-38 7 -5 0 -76 -11 -104 -6 -16 -38 -44 -75 -69 -61 -40 -66 -41 -127 -36 -35
3 -81 12 -102 21 -46 20 -172 145 -179 178 -28 138 -23 188 29 278 18 31 122
130 138 131 7 0 35 11 62 25 54 26 94 25 150 -3z m1094 -289 c20 -33 20 -37 4
-67 -22 -42 -31 -181 -12 -192 15 -10 95 77 104 113 13 54 40 102 57 102 21 0
26 -8 38 -62 15 -71 42 -139 58 -145 8 -3 28 2 44 12 38 22 34 1 -4 -28 -17
-13 -33 -17 -47 -12 -33 10 -77 58 -92 99 -7 20 -16 36 -19 36 -4 0 -14 -15
-24 -32 -48 -92 -71 -118 -102 -118 -25 0 -71 49 -80 86 -6 23 -24 34 -24 15
0 -13 -70 -55 -78 -47 -3 4 10 22 30 41 35 34 75 102 83 145 9 47 28 90 40 90
2 0 12 -16 24 -36z m-659 -2 c16 -13 23 -31 26 -60 4 -61 -25 -82 -111 -77
l-65 4 4 -34 c3 -22 15 -44 32 -58 23 -20 35 -23 73 -19 25 2 51 9 58 14 7 5
16 7 21 4 5 -3 23 4 40 14 24 15 32 16 32 6 0 -18 -28 -40 -70 -56 -19 -7 -41
-18 -47 -23 -7 -5 -38 -9 -69 -8 -52 0 -61 4 -96 38 -42 41 -70 95 -66 128 1
11 -1 26 -6 33 -4 7 -5 20 -2 29 5 12 9 13 20 4 10 -9 15 -8 19 3 3 9 25 29
48 46 51 36 122 42 159 12z m1620 8 c23 -12 39 -59 33 -94 -7 -36 -45 -53
-115 -51 -58 1 -58 1 -58 -28 0 -19 10 -38 31 -58 31 -29 42 -30 119 -12 14 4
29 5 33 4 5 -1 24 8 43 20 19 11 34 17 34 12 0 -14 -30 -53 -41 -53 -6 0 -29
-9 -52 -21 -64 -31 -138 -28 -181 8 -42 35 -88 120 -80 149 3 12 1 25 -5 28
-17 11 -1 37 20 31 12 -4 23 2 34 18 31 48 134 74 185 47z"/>
<path d="M2502 1358 c-7 -7 -12 -18 -12 -25 0 -8 -14 -41 -31 -74 -32 -64 -32
-65 -13 -195 3 -23 2 -44 -3 -47 -11 -7 0 -137 12 -140 5 -1 15 18 21 43 5 25
15 57 21 71 7 15 15 44 18 65 4 22 10 48 15 59 5 11 13 57 18 103 8 67 7 89
-5 112 -18 37 -27 42 -41 28z"/>
<path d="M1696 1284 c-3 -31 -12 -66 -18 -78 -13 -23 -19 -196 -7 -196 4 0 7
-13 7 -30 -1 -16 -5 -30 -10 -30 -5 0 -6 -6 -1 -12 4 -7 10 -38 13 -68 l6 -55
22 70 c23 75 35 146 34 208 0 20 -1 45 -1 55 -1 111 -3 141 -13 165 -16 41
-25 33 -32 -29z"/>
<path d="M1546 819 c-20 -23 -41 -49 -46 -59 -16 -30 -12 -86 8 -110 l18 -23
38 33 c20 18 44 47 54 64 18 34 25 86 11 86 -5 0 -9 11 -9 25 0 38 -31 31 -74
-16z"/>
<path d="M1230 913 c-25 -4 -67 -59 -55 -72 14 -14 86 -4 111 15 39 29 40 40
3 53 -18 6 -32 10 -33 10 -1 -1 -12 -4 -26 -6z"/>
<path d="M2859 913 c-21 -3 -59 -46 -59 -66 0 -15 62 -17 94 -3 74 31 49 81
-35 69z"/>
</g>
</svg>
